####
#
# OBJ File Generated by Meshlab
#
####
# Object cube.obj
#
# Vertices: 8
# Faces: 12
#
####
vn 0.577350 -0.577350 -0.577350
v 103.189240 -93.621529 -99.999977
vn 0.577350 -0.577350 0.577350
v 103.189240 -93.621498 100.000015
vn -0.577350 -0.577350 0.577350
v -96.810768 -93.621498 100.000000
vn -0.577350 -0.577350 -0.577350
v -96.810722 -93.621529 -100.000015
vn 0.577351 0.577350 -0.577350
v 103.189293 106.378471 -99.999962
vn -0.577350 0.577350 -0.577350
v -96.810753 106.378471 -100.000015
vn -0.577350 0.577350 0.577350
v -96.810791 106.378502 99.999947
vn 0.577350 0.577350 0.577351
v 103.189178 106.378502 100.000046
# 8 vertices, 0 vertices normals

f 1//1 2//2 3//3
f 1//1 3//3 4//4
f 5//5 6//6 7//7
f 5//5 7//7 8//8
f 1//1 5//5 8//8
f 1//1 8//8 2//2
f 2//2 8//8 7//7
f 2//2 7//7 3//3
f 3//3 7//7 6//6
f 3//3 6//6 4//4
f 5//5 1//1 4//4
f 5//5 4//4 6//6
# 12 faces, 0 coords texture

# End of File
